<?xml version="1.0" encoding="utf-8" standalone="no"?>
<!DOCTYPE svg PUBLIC "-//W3C//DTD SVG 1.1//EN"
  "http://www.w3.org/Graphics/SVG/1.1/DTD/svg11.dtd">
<svg xmlns:xlink="http://www.w3.org/1999/xlink" width="624.849375pt" height="510.305pt" viewBox="0 0 624.849375 510.305" xmlns="http://www.w3.org/2000/svg" version="1.1">
 <metadata>
  <rdf:RDF xmlns:dc="http://purl.org/dc/elements/1.1/" xmlns:cc="http://creativecommons.org/ns#" xmlns:rdf="http://www.w3.org/1999/02/22-rdf-syntax-ns#">
   <cc:Work>
    <dc:type rdf:resource="http://purl.org/dc/dcmitype/StillImage"/>
    <dc:date>2025-07-09T13:20:19.917145</dc:date>
    <dc:format>image/svg+xml</dc:format>
    <dc:creator>
     <cc:Agent>
      <dc:title>Matplotlib v3.10.3, https://matplotlib.org/</dc:title>
     </cc:Agent>
    </dc:creator>
   </cc:Work>
  </rdf:RDF>
 </metadata>
 <defs>
  <style type="text/css">*{stroke-linejoin: round; stroke-linecap: butt}</style>
 </defs>
 <g id="figure_1">
  <g id="patch_1">
   <path d="M 0 510.305 
L 624.849375 510.305 
L 624.849375 0 
L 0 0 
z
" style="fill: #ffffff"/>
  </g>
  <g id="axes_1">
   <g id="patch_2">
    <path d="M 59.649375 468.8775 
L 617.649375 468.8775 
L 617.649375 25.3575 
L 59.649375 25.3575 
z
" style="fill: #ffffff"/>
   </g>
   <g id="matplotlib.axis_1">
    <g id="xtick_1">
     <g id="line2d_1">
      <path d="M 59.649375 468.8775 
L 59.649375 25.3575 
" clip-path="url(#pcd772fcf48)" style="fill: none; stroke: #b0b0b0; stroke-opacity: 0.2; stroke-width: 0.8; stroke-linecap: square"/>
     </g>
     <g id="line2d_2">
      <defs>
       <path id="m151436fa22" d="M 0 0 
L 0 3.5 
" style="stroke: #000000; stroke-width: 0.8"/>
      </defs>
      <g>
       <use xlink:href="#m151436fa22" x="59.649375" y="468.8775" style="stroke: #000000; stroke-width: 0.8"/>
      </g>
     </g>
     <g id="text_1">
      <!-- $\mathdefault{10^{1}}$ -->
      <g transform="translate(50.849375 483.475937) scale(0.1 -0.1)">
       <defs>
        <path id="DejaVuSans-31" d="M 794 531 
L 1825 531 
L 1825 4091 
L 703 3866 
L 703 4441 
L 1819 4666 
L 2450 4666 
L 2450 531 
L 3481 531 
L 3481 0 
L 794 0 
L 794 531 
z
" transform="scale(0.015625)"/>
        <path id="DejaVuSans-30" d="M 2034 4250 
Q 1547 4250 1301 3770 
Q 1056 3291 1056 2328 
Q 1056 1369 1301 889 
Q 1547 409 2034 409 
Q 2525 409 2770 889 
Q 3016 1369 3016 2328 
Q 3016 3291 2770 3770 
Q 2525 4250 2034 4250 
z
M 2034 4750 
Q 2819 4750 3233 4129 
Q 3647 3509 3647 2328 
Q 3647 1150 3233 529 
Q 2819 -91 2034 -91 
Q 1250 -91 836 529 
Q 422 1150 422 2328 
Q 422 3509 836 4129 
Q 1250 4750 2034 4750 
z
" transform="scale(0.015625)"/>
       </defs>
       <use xlink:href="#DejaVuSans-31" transform="translate(0 0.684375)"/>
       <use xlink:href="#DejaVuSans-30" transform="translate(63.623047 0.684375)"/>
       <use xlink:href="#DejaVuSans-31" transform="translate(128.203125 38.965625) scale(0.7)"/>
      </g>
     </g>
    </g>
    <g id="xtick_2">
     <g id="line2d_3">
      <path d="M 302.149473 468.8775 
L 302.149473 25.3575 
" clip-path="url(#pcd772fcf48)" style="fill: none; stroke: #b0b0b0; stroke-opacity: 0.2; stroke-width: 0.8; stroke-linecap: square"/>
     </g>
     <g id="line2d_4">
      <g>
       <use xlink:href="#m151436fa22" x="302.149473" y="468.8775" style="stroke: #000000; stroke-width: 0.8"/>
      </g>
     </g>
     <g id="text_2">
      <!-- $\mathdefault{10^{2}}$ -->
      <g transform="translate(293.349473 483.475937) scale(0.1 -0.1)">
       <defs>
        <path id="DejaVuSans-32" d="M 1228 531 
L 3431 531 
L 3431 0 
L 469 0 
L 469 531 
Q 828 903 1448 1529 
Q 2069 2156 2228 2338 
Q 2531 2678 2651 2914 
Q 2772 3150 2772 3378 
Q 2772 3750 2511 3984 
Q 2250 4219 1831 4219 
Q 1534 4219 1204 4116 
Q 875 4013 500 3803 
L 500 4441 
Q 881 4594 1212 4672 
Q 1544 4750 1819 4750 
Q 2544 4750 2975 4387 
Q 3406 4025 3406 3419 
Q 3406 3131 3298 2873 
Q 3191 2616 2906 2266 
Q 2828 2175 2409 1742 
Q 1991 1309 1228 531 
z
" transform="scale(0.015625)"/>
       </defs>
       <use xlink:href="#DejaVuSans-31" transform="translate(0 0.765625)"/>
       <use xlink:href="#DejaVuSans-30" transform="translate(63.623047 0.765625)"/>
       <use xlink:href="#DejaVuSans-32" transform="translate(128.203125 39.046875) scale(0.7)"/>
      </g>
     </g>
    </g>
    <g id="xtick_3">
     <g id="line2d_5">
      <path d="M 544.649571 468.8775 
L 544.649571 25.3575 
" clip-path="url(#pcd772fcf48)" style="fill: none; stroke: #b0b0b0; stroke-opacity: 0.2; stroke-width: 0.8; stroke-linecap: square"/>
     </g>
     <g id="line2d_6">
      <g>
       <use xlink:href="#m151436fa22" x="544.649571" y="468.8775" style="stroke: #000000; stroke-width: 0.8"/>
      </g>
     </g>
     <g id="text_3">
      <!-- $\mathdefault{10^{3}}$ -->
      <g transform="translate(535.849571 483.475937) scale(0.1 -0.1)">
       <defs>
        <path id="DejaVuSans-33" d="M 2597 2516 
Q 3050 2419 3304 2112 
Q 3559 1806 3559 1356 
Q 3559 666 3084 287 
Q 2609 -91 1734 -91 
Q 1441 -91 1130 -33 
Q 819 25 488 141 
L 488 750 
Q 750 597 1062 519 
Q 1375 441 1716 441 
Q 2309 441 2620 675 
Q 2931 909 2931 1356 
Q 2931 1769 2642 2001 
Q 2353 2234 1838 2234 
L 1294 2234 
L 1294 2753 
L 1863 2753 
Q 2328 2753 2575 2939 
Q 2822 3125 2822 3475 
Q 2822 3834 2567 4026 
Q 2313 4219 1838 4219 
Q 1578 4219 1281 4162 
Q 984 4106 628 3988 
L 628 4550 
Q 988 4650 1302 4700 
Q 1616 4750 1894 4750 
Q 2613 4750 3031 4423 
Q 3450 4097 3450 3541 
Q 3450 3153 3228 2886 
Q 3006 2619 2597 2516 
z
" transform="scale(0.015625)"/>
       </defs>
       <use xlink:href="#DejaVuSans-31" transform="translate(0 0.765625)"/>
       <use xlink:href="#DejaVuSans-30" transform="translate(63.623047 0.765625)"/>
       <use xlink:href="#DejaVuSans-33" transform="translate(128.203125 39.046875) scale(0.7)"/>
      </g>
     </g>
    </g>
    <g id="xtick_4">
     <g id="line2d_7">
      <path d="M 132.649179 468.8775 
L 132.649179 25.3575 
" clip-path="url(#pcd772fcf48)" style="fill: none; stroke: #b0b0b0; stroke-opacity: 0.2; stroke-width: 0.8; stroke-linecap: square"/>
     </g>
     <g id="line2d_8">
      <defs>
       <path id="m95020bf714" d="M 0 0 
L 0 2 
" style="stroke: #000000; stroke-width: 0.6"/>
      </defs>
      <g>
       <use xlink:href="#m95020bf714" x="132.649179" y="468.8775" style="stroke: #000000; stroke-width: 0.6"/>
      </g>
     </g>
    </g>
    <g id="xtick_5">
     <g id="line2d_9">
      <path d="M 175.351326 468.8775 
L 175.351326 25.3575 
" clip-path="url(#pcd772fcf48)" style="fill: none; stroke: #b0b0b0; stroke-opacity: 0.2; stroke-width: 0.8; stroke-linecap: square"/>
     </g>
     <g id="line2d_10">
      <g>
       <use xlink:href="#m95020bf714" x="175.351326" y="468.8775" style="stroke: #000000; stroke-width: 0.6"/>
      </g>
     </g>
    </g>
    <g id="xtick_6">
     <g id="line2d_11">
      <path d="M 205.648982 468.8775 
L 205.648982 25.3575 
" clip-path="url(#pcd772fcf48)" style="fill: none; stroke: #b0b0b0; stroke-opacity: 0.2; stroke-width: 0.8; stroke-linecap: square"/>
     </g>
     <g id="line2d_12">
      <g>
       <use xlink:href="#m95020bf714" x="205.648982" y="468.8775" style="stroke: #000000; stroke-width: 0.6"/>
      </g>
     </g>
    </g>
    <g id="xtick_7">
     <g id="line2d_13">
      <path d="M 229.14967 468.8775 
L 229.14967 25.3575 
" clip-path="url(#pcd772fcf48)" style="fill: none; stroke: #b0b0b0; stroke-opacity: 0.2; stroke-width: 0.8; stroke-linecap: square"/>
     </g>
     <g id="line2d_14">
      <g>
       <use xlink:href="#m95020bf714" x="229.14967" y="468.8775" style="stroke: #000000; stroke-width: 0.6"/>
      </g>
     </g>
    </g>
    <g id="xtick_8">
     <g id="line2d_15">
      <path d="M 248.35113 468.8775 
L 248.35113 25.3575 
" clip-path="url(#pcd772fcf48)" style="fill: none; stroke: #b0b0b0; stroke-opacity: 0.2; stroke-width: 0.8; stroke-linecap: square"/>
     </g>
     <g id="line2d_16">
      <g>
       <use xlink:href="#m95020bf714" x="248.35113" y="468.8775" style="stroke: #000000; stroke-width: 0.6"/>
      </g>
     </g>
    </g>
    <g id="xtick_9">
     <g id="line2d_17">
      <path d="M 264.585733 468.8775 
L 264.585733 25.3575 
" clip-path="url(#pcd772fcf48)" style="fill: none; stroke: #b0b0b0; stroke-opacity: 0.2; stroke-width: 0.8; stroke-linecap: square"/>
     </g>
     <g id="line2d_18">
      <g>
       <use xlink:href="#m95020bf714" x="264.585733" y="468.8775" style="stroke: #000000; stroke-width: 0.6"/>
      </g>
     </g>
    </g>
    <g id="xtick_10">
     <g id="line2d_19">
      <path d="M 278.648786 468.8775 
L 278.648786 25.3575 
" clip-path="url(#pcd772fcf48)" style="fill: none; stroke: #b0b0b0; stroke-opacity: 0.2; stroke-width: 0.8; stroke-linecap: square"/>
     </g>
     <g id="line2d_20">
      <g>
       <use xlink:href="#m95020bf714" x="278.648786" y="468.8775" style="stroke: #000000; stroke-width: 0.6"/>
      </g>
     </g>
    </g>
    <g id="xtick_11">
     <g id="line2d_21">
      <path d="M 291.053277 468.8775 
L 291.053277 25.3575 
" clip-path="url(#pcd772fcf48)" style="fill: none; stroke: #b0b0b0; stroke-opacity: 0.2; stroke-width: 0.8; stroke-linecap: square"/>
     </g>
     <g id="line2d_22">
      <g>
       <use xlink:href="#m95020bf714" x="291.053277" y="468.8775" style="stroke: #000000; stroke-width: 0.6"/>
      </g>
     </g>
    </g>
    <g id="xtick_12">
     <g id="line2d_23">
      <path d="M 375.149277 468.8775 
L 375.149277 25.3575 
" clip-path="url(#pcd772fcf48)" style="fill: none; stroke: #b0b0b0; stroke-opacity: 0.2; stroke-width: 0.8; stroke-linecap: square"/>
     </g>
     <g id="line2d_24">
      <g>
       <use xlink:href="#m95020bf714" x="375.149277" y="468.8775" style="stroke: #000000; stroke-width: 0.6"/>
      </g>
     </g>
    </g>
    <g id="xtick_13">
     <g id="line2d_25">
      <path d="M 417.851424 468.8775 
L 417.851424 25.3575 
" clip-path="url(#pcd772fcf48)" style="fill: none; stroke: #b0b0b0; stroke-opacity: 0.2; stroke-width: 0.8; stroke-linecap: square"/>
     </g>
     <g id="line2d_26">
      <g>
       <use xlink:href="#m95020bf714" x="417.851424" y="468.8775" style="stroke: #000000; stroke-width: 0.6"/>
      </g>
     </g>
    </g>
    <g id="xtick_14">
     <g id="line2d_27">
      <path d="M 448.14908 468.8775 
L 448.14908 25.3575 
" clip-path="url(#pcd772fcf48)" style="fill: none; stroke: #b0b0b0; stroke-opacity: 0.2; stroke-width: 0.8; stroke-linecap: square"/>
     </g>
     <g id="line2d_28">
      <g>
       <use xlink:href="#m95020bf714" x="448.14908" y="468.8775" style="stroke: #000000; stroke-width: 0.6"/>
      </g>
     </g>
    </g>
    <g id="xtick_15">
     <g id="line2d_29">
      <path d="M 471.649768 468.8775 
L 471.649768 25.3575 
" clip-path="url(#pcd772fcf48)" style="fill: none; stroke: #b0b0b0; stroke-opacity: 0.2; stroke-width: 0.8; stroke-linecap: square"/>
     </g>
     <g id="line2d_30">
      <g>
       <use xlink:href="#m95020bf714" x="471.649768" y="468.8775" style="stroke: #000000; stroke-width: 0.6"/>
      </g>
     </g>
    </g>
    <g id="xtick_16">
     <g id="line2d_31">
      <path d="M 490.851228 468.8775 
L 490.851228 25.3575 
" clip-path="url(#pcd772fcf48)" style="fill: none; stroke: #b0b0b0; stroke-opacity: 0.2; stroke-width: 0.8; stroke-linecap: square"/>
     </g>
     <g id="line2d_32">
      <g>
       <use xlink:href="#m95020bf714" x="490.851228" y="468.8775" style="stroke: #000000; stroke-width: 0.6"/>
      </g>
     </g>
    </g>
    <g id="xtick_17">
     <g id="line2d_33">
      <path d="M 507.085831 468.8775 
L 507.085831 25.3575 
" clip-path="url(#pcd772fcf48)" style="fill: none; stroke: #b0b0b0; stroke-opacity: 0.2; stroke-width: 0.8; stroke-linecap: square"/>
     </g>
     <g id="line2d_34">
      <g>
       <use xlink:href="#m95020bf714" x="507.085831" y="468.8775" style="stroke: #000000; stroke-width: 0.6"/>
      </g>
     </g>
    </g>
    <g id="xtick_18">
     <g id="line2d_35">
      <path d="M 521.148884 468.8775 
L 521.148884 25.3575 
" clip-path="url(#pcd772fcf48)" style="fill: none; stroke: #b0b0b0; stroke-opacity: 0.2; stroke-width: 0.8; stroke-linecap: square"/>
     </g>
     <g id="line2d_36">
      <g>
       <use xlink:href="#m95020bf714" x="521.148884" y="468.8775" style="stroke: #000000; stroke-width: 0.6"/>
      </g>
     </g>
    </g>
    <g id="xtick_19">
     <g id="line2d_37">
      <path d="M 533.553376 468.8775 
L 533.553376 25.3575 
" clip-path="url(#pcd772fcf48)" style="fill: none; stroke: #b0b0b0; stroke-opacity: 0.2; stroke-width: 0.8; stroke-linecap: square"/>
     </g>
     <g id="line2d_38">
      <g>
       <use xlink:href="#m95020bf714" x="533.553376" y="468.8775" style="stroke: #000000; stroke-width: 0.6"/>
      </g>
     </g>
    </g>
    <g id="xtick_20">
     <g id="line2d_39">
      <path d="M 617.649375 468.8775 
L 617.649375 25.3575 
" clip-path="url(#pcd772fcf48)" style="fill: none; stroke: #b0b0b0; stroke-opacity: 0.2; stroke-width: 0.8; stroke-linecap: square"/>
     </g>
     <g id="line2d_40">
      <g>
       <use xlink:href="#m95020bf714" x="617.649375" y="468.8775" style="stroke: #000000; stroke-width: 0.6"/>
      </g>
     </g>
    </g>
    <g id="text_4">
     <!-- Incident Electron Energy (eV) -->
     <g transform="translate(235.974688 500.193437) scale(0.14 -0.14)">
      <defs>
       <path id="DejaVuSans-49" d="M 628 4666 
L 1259 4666 
L 1259 0 
L 628 0 
L 628 4666 
z
" transform="scale(0.015625)"/>
       <path id="DejaVuSans-6e" d="M 3513 2113 
L 3513 0 
L 2938 0 
L 2938 2094 
Q 2938 2591 2744 2837 
Q 2550 3084 2163 3084 
Q 1697 3084 1428 2787 
Q 1159 2491 1159 1978 
L 1159 0 
L 581 0 
L 581 3500 
L 1159 3500 
L 1159 2956 
Q 1366 3272 1645 3428 
Q 1925 3584 2291 3584 
Q 2894 3584 3203 3211 
Q 3513 2838 3513 2113 
z
" transform="scale(0.015625)"/>
       <path id="DejaVuSans-63" d="M 3122 3366 
L 3122 2828 
Q 2878 2963 2633 3030 
Q 2388 3097 2138 3097 
Q 1578 3097 1268 2742 
Q 959 2388 959 1747 
Q 959 1106 1268 751 
Q 1578 397 2138 397 
Q 2388 397 2633 464 
Q 2878 531 3122 666 
L 3122 134 
Q 2881 22 2623 -34 
Q 2366 -91 2075 -91 
Q 1284 -91 818 406 
Q 353 903 353 1747 
Q 353 2603 823 3093 
Q 1294 3584 2113 3584 
Q 2378 3584 2631 3529 
Q 2884 3475 3122 3366 
z
" transform="scale(0.015625)"/>
       <path id="DejaVuSans-69" d="M 603 3500 
L 1178 3500 
L 1178 0 
L 603 0 
L 603 3500 
z
M 603 4863 
L 1178 4863 
L 1178 4134 
L 603 4134 
L 603 4863 
z
" transform="scale(0.015625)"/>
       <path id="DejaVuSans-64" d="M 2906 2969 
L 2906 4863 
L 3481 4863 
L 3481 0 
L 2906 0 
L 2906 525 
Q 2725 213 2448 61 
Q 2172 -91 1784 -91 
Q 1150 -91 751 415 
Q 353 922 353 1747 
Q 353 2572 751 3078 
Q 1150 3584 1784 3584 
Q 2172 3584 2448 3432 
Q 2725 3281 2906 2969 
z
M 947 1747 
Q 947 1113 1208 752 
Q 1469 391 1925 391 
Q 2381 391 2643 752 
Q 2906 1113 2906 1747 
Q 2906 2381 2643 2742 
Q 2381 3103 1925 3103 
Q 1469 3103 1208 2742 
Q 947 2381 947 1747 
z
" transform="scale(0.015625)"/>
       <path id="DejaVuSans-65" d="M 3597 1894 
L 3597 1613 
L 953 1613 
Q 991 1019 1311 708 
Q 1631 397 2203 397 
Q 2534 397 2845 478 
Q 3156 559 3463 722 
L 3463 178 
Q 3153 47 2828 -22 
Q 2503 -91 2169 -91 
Q 1331 -91 842 396 
Q 353 884 353 1716 
Q 353 2575 817 3079 
Q 1281 3584 2069 3584 
Q 2775 3584 3186 3129 
Q 3597 2675 3597 1894 
z
M 3022 2063 
Q 3016 2534 2758 2815 
Q 2500 3097 2075 3097 
Q 1594 3097 1305 2825 
Q 1016 2553 972 2059 
L 3022 2063 
z
" transform="scale(0.015625)"/>
       <path id="DejaVuSans-74" d="M 1172 4494 
L 1172 3500 
L 2356 3500 
L 2356 3053 
L 1172 3053 
L 1172 1153 
Q 1172 725 1289 603 
Q 1406 481 1766 481 
L 2356 481 
L 2356 0 
L 1766 0 
Q 1100 0 847 248 
Q 594 497 594 1153 
L 594 3053 
L 172 3053 
L 172 3500 
L 594 3500 
L 594 4494 
L 1172 4494 
z
" transform="scale(0.015625)"/>
       <path id="DejaVuSans-20" transform="scale(0.015625)"/>
       <path id="DejaVuSans-45" d="M 628 4666 
L 3578 4666 
L 3578 4134 
L 1259 4134 
L 1259 2753 
L 3481 2753 
L 3481 2222 
L 1259 2222 
L 1259 531 
L 3634 531 
L 3634 0 
L 628 0 
L 628 4666 
z
" transform="scale(0.015625)"/>
       <path id="DejaVuSans-6c" d="M 603 4863 
L 1178 4863 
L 1178 0 
L 603 0 
L 603 4863 
z
" transform="scale(0.015625)"/>
       <path id="DejaVuSans-72" d="M 2631 2963 
Q 2534 3019 2420 3045 
Q 2306 3072 2169 3072 
Q 1681 3072 1420 2755 
Q 1159 2438 1159 1844 
L 1159 0 
L 581 0 
L 581 3500 
L 1159 3500 
L 1159 2956 
Q 1341 3275 1631 3429 
Q 1922 3584 2338 3584 
Q 2397 3584 2469 3576 
Q 2541 3569 2628 3553 
L 2631 2963 
z
" transform="scale(0.015625)"/>
       <path id="DejaVuSans-6f" d="M 1959 3097 
Q 1497 3097 1228 2736 
Q 959 2375 959 1747 
Q 959 1119 1226 758 
Q 1494 397 1959 397 
Q 2419 397 2687 759 
Q 2956 1122 2956 1747 
Q 2956 2369 2687 2733 
Q 2419 3097 1959 3097 
z
M 1959 3584 
Q 2709 3584 3137 3096 
Q 3566 2609 3566 1747 
Q 3566 888 3137 398 
Q 2709 -91 1959 -91 
Q 1206 -91 779 398 
Q 353 888 353 1747 
Q 353 2609 779 3096 
Q 1206 3584 1959 3584 
z
" transform="scale(0.015625)"/>
       <path id="DejaVuSans-67" d="M 2906 1791 
Q 2906 2416 2648 2759 
Q 2391 3103 1925 3103 
Q 1463 3103 1205 2759 
Q 947 2416 947 1791 
Q 947 1169 1205 825 
Q 1463 481 1925 481 
Q 2391 481 2648 825 
Q 2906 1169 2906 1791 
z
M 3481 434 
Q 3481 -459 3084 -895 
Q 2688 -1331 1869 -1331 
Q 1566 -1331 1297 -1286 
Q 1028 -1241 775 -1147 
L 775 -588 
Q 1028 -725 1275 -790 
Q 1522 -856 1778 -856 
Q 2344 -856 2625 -561 
Q 2906 -266 2906 331 
L 2906 616 
Q 2728 306 2450 153 
Q 2172 0 1784 0 
Q 1141 0 747 490 
Q 353 981 353 1791 
Q 353 2603 747 3093 
Q 1141 3584 1784 3584 
Q 2172 3584 2450 3431 
Q 2728 3278 2906 2969 
L 2906 3500 
L 3481 3500 
L 3481 434 
z
" transform="scale(0.015625)"/>
       <path id="DejaVuSans-79" d="M 2059 -325 
Q 1816 -950 1584 -1140 
Q 1353 -1331 966 -1331 
L 506 -1331 
L 506 -850 
L 844 -850 
Q 1081 -850 1212 -737 
Q 1344 -625 1503 -206 
L 1606 56 
L 191 3500 
L 800 3500 
L 1894 763 
L 2988 3500 
L 3597 3500 
L 2059 -325 
z
" transform="scale(0.015625)"/>
       <path id="DejaVuSans-28" d="M 1984 4856 
Q 1566 4138 1362 3434 
Q 1159 2731 1159 2009 
Q 1159 1288 1364 580 
Q 1569 -128 1984 -844 
L 1484 -844 
Q 1016 -109 783 600 
Q 550 1309 550 2009 
Q 550 2706 781 3412 
Q 1013 4119 1484 4856 
L 1984 4856 
z
" transform="scale(0.015625)"/>
       <path id="DejaVuSans-56" d="M 1831 0 
L 50 4666 
L 709 4666 
L 2188 738 
L 3669 4666 
L 4325 4666 
L 2547 0 
L 1831 0 
z
" transform="scale(0.015625)"/>
       <path id="DejaVuSans-29" d="M 513 4856 
L 1013 4856 
Q 1481 4119 1714 3412 
Q 1947 2706 1947 2009 
Q 1947 1309 1714 600 
Q 1481 -109 1013 -844 
L 513 -844 
Q 928 -128 1133 580 
Q 1338 1288 1338 2009 
Q 1338 2731 1133 3434 
Q 928 4138 513 4856 
z
" transform="scale(0.015625)"/>
      </defs>
      <use xlink:href="#DejaVuSans-49"/>
      <use xlink:href="#DejaVuSans-6e" transform="translate(29.492188 0)"/>
      <use xlink:href="#DejaVuSans-63" transform="translate(92.871094 0)"/>
      <use xlink:href="#DejaVuSans-69" transform="translate(147.851562 0)"/>
      <use xlink:href="#DejaVuSans-64" transform="translate(175.634766 0)"/>
      <use xlink:href="#DejaVuSans-65" transform="translate(239.111328 0)"/>
      <use xlink:href="#DejaVuSans-6e" transform="translate(300.634766 0)"/>
      <use xlink:href="#DejaVuSans-74" transform="translate(364.013672 0)"/>
      <use xlink:href="#DejaVuSans-20" transform="translate(403.222656 0)"/>
      <use xlink:href="#DejaVuSans-45" transform="translate(435.009766 0)"/>
      <use xlink:href="#DejaVuSans-6c" transform="translate(498.193359 0)"/>
      <use xlink:href="#DejaVuSans-65" transform="translate(525.976562 0)"/>
      <use xlink:href="#DejaVuSans-63" transform="translate(587.5 0)"/>
      <use xlink:href="#DejaVuSans-74" transform="translate(642.480469 0)"/>
      <use xlink:href="#DejaVuSans-72" transform="translate(681.689453 0)"/>
      <use xlink:href="#DejaVuSans-6f" transform="translate(720.552734 0)"/>
      <use xlink:href="#DejaVuSans-6e" transform="translate(781.734375 0)"/>
      <use xlink:href="#DejaVuSans-20" transform="translate(845.113281 0)"/>
      <use xlink:href="#DejaVuSans-45" transform="translate(876.900391 0)"/>
      <use xlink:href="#DejaVuSans-6e" transform="translate(940.083984 0)"/>
      <use xlink:href="#DejaVuSans-65" transform="translate(1003.462891 0)"/>
      <use xlink:href="#DejaVuSans-72" transform="translate(1064.986328 0)"/>
      <use xlink:href="#DejaVuSans-67" transform="translate(1104.349609 0)"/>
      <use xlink:href="#DejaVuSans-79" transform="translate(1167.826172 0)"/>
      <use xlink:href="#DejaVuSans-20" transform="translate(1227.005859 0)"/>
      <use xlink:href="#DejaVuSans-28" transform="translate(1258.792969 0)"/>
      <use xlink:href="#DejaVuSans-65" transform="translate(1297.806641 0)"/>
      <use xlink:href="#DejaVuSans-56" transform="translate(1359.330078 0)"/>
      <use xlink:href="#DejaVuSans-29" transform="translate(1427.738281 0)"/>
     </g>
    </g>
   </g>
   <g id="matplotlib.axis_2">
    <g id="ytick_1">
     <g id="line2d_41">
      <path d="M 59.649375 468.8775 
L 617.649375 468.8775 
" clip-path="url(#pcd772fcf48)" style="fill: none; stroke: #b0b0b0; stroke-opacity: 0.2; stroke-width: 0.8; stroke-linecap: square"/>
     </g>
     <g id="line2d_42">
      <defs>
       <path id="m5a21dcdfb8" d="M 0 0 
L -3.5 0 
" style="stroke: #000000; stroke-width: 0.8"/>
      </defs>
      <g>
       <use xlink:href="#m5a21dcdfb8" x="59.649375" y="468.8775" style="stroke: #000000; stroke-width: 0.8"/>
      </g>
     </g>
     <g id="text_5">
      <!-- $\mathdefault{10^{-22}}$ -->
      <g transform="translate(24.749375 472.676719) scale(0.1 -0.1)">
       <defs>
        <path id="DejaVuSans-2212" d="M 678 2272 
L 4684 2272 
L 4684 1741 
L 678 1741 
L 678 2272 
z
" transform="scale(0.015625)"/>
       </defs>
       <use xlink:href="#DejaVuSans-31" transform="translate(0 0.765625)"/>
       <use xlink:href="#DejaVuSans-30" transform="translate(63.623047 0.765625)"/>
       <use xlink:href="#DejaVuSans-2212" transform="translate(128.203125 39.046875) scale(0.7)"/>
       <use xlink:href="#DejaVuSans-32" transform="translate(186.855469 39.046875) scale(0.7)"/>
       <use xlink:href="#DejaVuSans-32" transform="translate(231.391602 39.046875) scale(0.7)"/>
      </g>
     </g>
    </g>
    <g id="ytick_2">
     <g id="line2d_43">
      <path d="M 59.649375 326.763748 
L 617.649375 326.763748 
" clip-path="url(#pcd772fcf48)" style="fill: none; stroke: #b0b0b0; stroke-opacity: 0.2; stroke-width: 0.8; stroke-linecap: square"/>
     </g>
     <g id="line2d_44">
      <g>
       <use xlink:href="#m5a21dcdfb8" x="59.649375" y="326.763748" style="stroke: #000000; stroke-width: 0.8"/>
      </g>
     </g>
     <g id="text_6">
      <!-- $\mathdefault{10^{-21}}$ -->
      <g transform="translate(24.749375 330.562967) scale(0.1 -0.1)">
       <use xlink:href="#DejaVuSans-31" transform="translate(0 0.765625)"/>
       <use xlink:href="#DejaVuSans-30" transform="translate(63.623047 0.765625)"/>
       <use xlink:href="#DejaVuSans-2212" transform="translate(128.203125 39.046875) scale(0.7)"/>
       <use xlink:href="#DejaVuSans-32" transform="translate(186.855469 39.046875) scale(0.7)"/>
       <use xlink:href="#DejaVuSans-31" transform="translate(231.391602 39.046875) scale(0.7)"/>
      </g>
     </g>
    </g>
    <g id="ytick_3">
     <g id="line2d_45">
      <path d="M 59.649375 184.649996 
L 617.649375 184.649996 
" clip-path="url(#pcd772fcf48)" style="fill: none; stroke: #b0b0b0; stroke-opacity: 0.2; stroke-width: 0.8; stroke-linecap: square"/>
     </g>
     <g id="line2d_46">
      <g>
       <use xlink:href="#m5a21dcdfb8" x="59.649375" y="184.649996" style="stroke: #000000; stroke-width: 0.8"/>
      </g>
     </g>
     <g id="text_7">
      <!-- $\mathdefault{10^{-20}}$ -->
      <g transform="translate(24.749375 188.449214) scale(0.1 -0.1)">
       <use xlink:href="#DejaVuSans-31" transform="translate(0 0.765625)"/>
       <use xlink:href="#DejaVuSans-30" transform="translate(63.623047 0.765625)"/>
       <use xlink:href="#DejaVuSans-2212" transform="translate(128.203125 39.046875) scale(0.7)"/>
       <use xlink:href="#DejaVuSans-32" transform="translate(186.855469 39.046875) scale(0.7)"/>
       <use xlink:href="#DejaVuSans-30" transform="translate(231.391602 39.046875) scale(0.7)"/>
      </g>
     </g>
    </g>
    <g id="ytick_4">
     <g id="line2d_47">
      <path d="M 59.649375 42.536244 
L 617.649375 42.536244 
" clip-path="url(#pcd772fcf48)" style="fill: none; stroke: #b0b0b0; stroke-opacity: 0.2; stroke-width: 0.8; stroke-linecap: square"/>
     </g>
     <g id="line2d_48">
      <g>
       <use xlink:href="#m5a21dcdfb8" x="59.649375" y="42.536244" style="stroke: #000000; stroke-width: 0.8"/>
      </g>
     </g>
     <g id="text_8">
      <!-- $\mathdefault{10^{-19}}$ -->
      <g transform="translate(24.749375 46.335462) scale(0.1 -0.1)">
       <defs>
        <path id="DejaVuSans-39" d="M 703 97 
L 703 672 
Q 941 559 1184 500 
Q 1428 441 1663 441 
Q 2288 441 2617 861 
Q 2947 1281 2994 2138 
Q 2813 1869 2534 1725 
Q 2256 1581 1919 1581 
Q 1219 1581 811 2004 
Q 403 2428 403 3163 
Q 403 3881 828 4315 
Q 1253 4750 1959 4750 
Q 2769 4750 3195 4129 
Q 3622 3509 3622 2328 
Q 3622 1225 3098 567 
Q 2575 -91 1691 -91 
Q 1453 -91 1209 -44 
Q 966 3 703 97 
z
M 1959 2075 
Q 2384 2075 2632 2365 
Q 2881 2656 2881 3163 
Q 2881 3666 2632 3958 
Q 2384 4250 1959 4250 
Q 1534 4250 1286 3958 
Q 1038 3666 1038 3163 
Q 1038 2656 1286 2365 
Q 1534 2075 1959 2075 
z
" transform="scale(0.015625)"/>
       </defs>
       <use xlink:href="#DejaVuSans-31" transform="translate(0 0.765625)"/>
       <use xlink:href="#DejaVuSans-30" transform="translate(63.623047 0.765625)"/>
       <use xlink:href="#DejaVuSans-2212" transform="translate(128.203125 39.046875) scale(0.7)"/>
       <use xlink:href="#DejaVuSans-31" transform="translate(186.855469 39.046875) scale(0.7)"/>
       <use xlink:href="#DejaVuSans-39" transform="translate(231.391602 39.046875) scale(0.7)"/>
      </g>
     </g>
    </g>
    <g id="ytick_5">
     <g id="line2d_49">
      <path d="M 59.649375 426.096998 
L 617.649375 426.096998 
" clip-path="url(#pcd772fcf48)" style="fill: none; stroke: #b0b0b0; stroke-opacity: 0.2; stroke-width: 0.8; stroke-linecap: square"/>
     </g>
     <g id="line2d_50">
      <defs>
       <path id="m791adf600b" d="M 0 0 
L -2 0 
" style="stroke: #000000; stroke-width: 0.6"/>
      </defs>
      <g>
       <use xlink:href="#m791adf600b" x="59.649375" y="426.096998" style="stroke: #000000; stroke-width: 0.6"/>
      </g>
     </g>
    </g>
    <g id="ytick_6">
     <g id="line2d_51">
      <path d="M 59.649375 401.072008 
L 617.649375 401.072008 
" clip-path="url(#pcd772fcf48)" style="fill: none; stroke: #b0b0b0; stroke-opacity: 0.2; stroke-width: 0.8; stroke-linecap: square"/>
     </g>
     <g id="line2d_52">
      <g>
       <use xlink:href="#m791adf600b" x="59.649375" y="401.072008" style="stroke: #000000; stroke-width: 0.6"/>
      </g>
     </g>
    </g>
    <g id="ytick_7">
     <g id="line2d_53">
      <path d="M 59.649375 383.316496 
L 617.649375 383.316496 
" clip-path="url(#pcd772fcf48)" style="fill: none; stroke: #b0b0b0; stroke-opacity: 0.2; stroke-width: 0.8; stroke-linecap: square"/>
     </g>
     <g id="line2d_54">
      <g>
       <use xlink:href="#m791adf600b" x="59.649375" y="383.316496" style="stroke: #000000; stroke-width: 0.6"/>
      </g>
     </g>
    </g>
    <g id="ytick_8">
     <g id="line2d_55">
      <path d="M 59.649375 369.54425 
L 617.649375 369.54425 
" clip-path="url(#pcd772fcf48)" style="fill: none; stroke: #b0b0b0; stroke-opacity: 0.2; stroke-width: 0.8; stroke-linecap: square"/>
     </g>
     <g id="line2d_56">
      <g>
       <use xlink:href="#m791adf600b" x="59.649375" y="369.54425" style="stroke: #000000; stroke-width: 0.6"/>
      </g>
     </g>
    </g>
    <g id="ytick_9">
     <g id="line2d_57">
      <path d="M 59.649375 358.291506 
L 617.649375 358.291506 
" clip-path="url(#pcd772fcf48)" style="fill: none; stroke: #b0b0b0; stroke-opacity: 0.2; stroke-width: 0.8; stroke-linecap: square"/>
     </g>
     <g id="line2d_58">
      <g>
       <use xlink:href="#m791adf600b" x="59.649375" y="358.291506" style="stroke: #000000; stroke-width: 0.6"/>
      </g>
     </g>
    </g>
    <g id="ytick_10">
     <g id="line2d_59">
      <path d="M 59.649375 348.777447 
L 617.649375 348.777447 
" clip-path="url(#pcd772fcf48)" style="fill: none; stroke: #b0b0b0; stroke-opacity: 0.2; stroke-width: 0.8; stroke-linecap: square"/>
     </g>
     <g id="line2d_60">
      <g>
       <use xlink:href="#m791adf600b" x="59.649375" y="348.777447" style="stroke: #000000; stroke-width: 0.6"/>
      </g>
     </g>
    </g>
    <g id="ytick_11">
     <g id="line2d_61">
      <path d="M 59.649375 340.535993 
L 617.649375 340.535993 
" clip-path="url(#pcd772fcf48)" style="fill: none; stroke: #b0b0b0; stroke-opacity: 0.2; stroke-width: 0.8; stroke-linecap: square"/>
     </g>
     <g id="line2d_62">
      <g>
       <use xlink:href="#m791adf600b" x="59.649375" y="340.535993" style="stroke: #000000; stroke-width: 0.6"/>
      </g>
     </g>
    </g>
    <g id="ytick_12">
     <g id="line2d_63">
      <path d="M 59.649375 333.266517 
L 617.649375 333.266517 
" clip-path="url(#pcd772fcf48)" style="fill: none; stroke: #b0b0b0; stroke-opacity: 0.2; stroke-width: 0.8; stroke-linecap: square"/>
     </g>
     <g id="line2d_64">
      <g>
       <use xlink:href="#m791adf600b" x="59.649375" y="333.266517" style="stroke: #000000; stroke-width: 0.6"/>
      </g>
     </g>
    </g>
    <g id="ytick_13">
     <g id="line2d_65">
      <path d="M 59.649375 283.983246 
L 617.649375 283.983246 
" clip-path="url(#pcd772fcf48)" style="fill: none; stroke: #b0b0b0; stroke-opacity: 0.2; stroke-width: 0.8; stroke-linecap: square"/>
     </g>
     <g id="line2d_66">
      <g>
       <use xlink:href="#m791adf600b" x="59.649375" y="283.983246" style="stroke: #000000; stroke-width: 0.6"/>
      </g>
     </g>
    </g>
    <g id="ytick_14">
     <g id="line2d_67">
      <path d="M 59.649375 258.958256 
L 617.649375 258.958256 
" clip-path="url(#pcd772fcf48)" style="fill: none; stroke: #b0b0b0; stroke-opacity: 0.2; stroke-width: 0.8; stroke-linecap: square"/>
     </g>
     <g id="line2d_68">
      <g>
       <use xlink:href="#m791adf600b" x="59.649375" y="258.958256" style="stroke: #000000; stroke-width: 0.6"/>
      </g>
     </g>
    </g>
    <g id="ytick_15">
     <g id="line2d_69">
      <path d="M 59.649375 241.202743 
L 617.649375 241.202743 
" clip-path="url(#pcd772fcf48)" style="fill: none; stroke: #b0b0b0; stroke-opacity: 0.2; stroke-width: 0.8; stroke-linecap: square"/>
     </g>
     <g id="line2d_70">
      <g>
       <use xlink:href="#m791adf600b" x="59.649375" y="241.202743" style="stroke: #000000; stroke-width: 0.6"/>
      </g>
     </g>
    </g>
    <g id="ytick_16">
     <g id="line2d_71">
      <path d="M 59.649375 227.430498 
L 617.649375 227.430498 
" clip-path="url(#pcd772fcf48)" style="fill: none; stroke: #b0b0b0; stroke-opacity: 0.2; stroke-width: 0.8; stroke-linecap: square"/>
     </g>
     <g id="line2d_72">
      <g>
       <use xlink:href="#m791adf600b" x="59.649375" y="227.430498" style="stroke: #000000; stroke-width: 0.6"/>
      </g>
     </g>
    </g>
    <g id="ytick_17">
     <g id="line2d_73">
      <path d="M 59.649375 216.177754 
L 617.649375 216.177754 
" clip-path="url(#pcd772fcf48)" style="fill: none; stroke: #b0b0b0; stroke-opacity: 0.2; stroke-width: 0.8; stroke-linecap: square"/>
     </g>
     <g id="line2d_74">
      <g>
       <use xlink:href="#m791adf600b" x="59.649375" y="216.177754" style="stroke: #000000; stroke-width: 0.6"/>
      </g>
     </g>
    </g>
    <g id="ytick_18">
     <g id="line2d_75">
      <path d="M 59.649375 206.663694 
L 617.649375 206.663694 
" clip-path="url(#pcd772fcf48)" style="fill: none; stroke: #b0b0b0; stroke-opacity: 0.2; stroke-width: 0.8; stroke-linecap: square"/>
     </g>
     <g id="line2d_76">
      <g>
       <use xlink:href="#m791adf600b" x="59.649375" y="206.663694" style="stroke: #000000; stroke-width: 0.6"/>
      </g>
     </g>
    </g>
    <g id="ytick_19">
     <g id="line2d_77">
      <path d="M 59.649375 198.422241 
L 617.649375 198.422241 
" clip-path="url(#pcd772fcf48)" style="fill: none; stroke: #b0b0b0; stroke-opacity: 0.2; stroke-width: 0.8; stroke-linecap: square"/>
     </g>
     <g id="line2d_78">
      <g>
       <use xlink:href="#m791adf600b" x="59.649375" y="198.422241" style="stroke: #000000; stroke-width: 0.6"/>
      </g>
     </g>
    </g>
    <g id="ytick_20">
     <g id="line2d_79">
      <path d="M 59.649375 191.152764 
L 617.649375 191.152764 
" clip-path="url(#pcd772fcf48)" style="fill: none; stroke: #b0b0b0; stroke-opacity: 0.2; stroke-width: 0.8; stroke-linecap: square"/>
     </g>
     <g id="line2d_80">
      <g>
       <use xlink:href="#m791adf600b" x="59.649375" y="191.152764" style="stroke: #000000; stroke-width: 0.6"/>
      </g>
     </g>
    </g>
    <g id="ytick_21">
     <g id="line2d_81">
      <path d="M 59.649375 141.869493 
L 617.649375 141.869493 
" clip-path="url(#pcd772fcf48)" style="fill: none; stroke: #b0b0b0; stroke-opacity: 0.2; stroke-width: 0.8; stroke-linecap: square"/>
     </g>
     <g id="line2d_82">
      <g>
       <use xlink:href="#m791adf600b" x="59.649375" y="141.869493" style="stroke: #000000; stroke-width: 0.6"/>
      </g>
     </g>
    </g>
    <g id="ytick_22">
     <g id="line2d_83">
      <path d="M 59.649375 116.844504 
L 617.649375 116.844504 
" clip-path="url(#pcd772fcf48)" style="fill: none; stroke: #b0b0b0; stroke-opacity: 0.2; stroke-width: 0.8; stroke-linecap: square"/>
     </g>
     <g id="line2d_84">
      <g>
       <use xlink:href="#m791adf600b" x="59.649375" y="116.844504" style="stroke: #000000; stroke-width: 0.6"/>
      </g>
     </g>
    </g>
    <g id="ytick_23">
     <g id="line2d_85">
      <path d="M 59.649375 99.088991 
L 617.649375 99.088991 
" clip-path="url(#pcd772fcf48)" style="fill: none; stroke: #b0b0b0; stroke-opacity: 0.2; stroke-width: 0.8; stroke-linecap: square"/>
     </g>
     <g id="line2d_86">
      <g>
       <use xlink:href="#m791adf600b" x="59.649375" y="99.088991" style="stroke: #000000; stroke-width: 0.6"/>
      </g>
     </g>
    </g>
    <g id="ytick_24">
     <g id="line2d_87">
      <path d="M 59.649375 85.316746 
L 617.649375 85.316746 
" clip-path="url(#pcd772fcf48)" style="fill: none; stroke: #b0b0b0; stroke-opacity: 0.2; stroke-width: 0.8; stroke-linecap: square"/>
     </g>
     <g id="line2d_88">
      <g>
       <use xlink:href="#m791adf600b" x="59.649375" y="85.316746" style="stroke: #000000; stroke-width: 0.6"/>
      </g>
     </g>
    </g>
    <g id="ytick_25">
     <g id="line2d_89">
      <path d="M 59.649375 74.064002 
L 617.649375 74.064002 
" clip-path="url(#pcd772fcf48)" style="fill: none; stroke: #b0b0b0; stroke-opacity: 0.2; stroke-width: 0.8; stroke-linecap: square"/>
     </g>
     <g id="line2d_90">
      <g>
       <use xlink:href="#m791adf600b" x="59.649375" y="74.064002" style="stroke: #000000; stroke-width: 0.6"/>
      </g>
     </g>
    </g>
    <g id="ytick_26">
     <g id="line2d_91">
      <path d="M 59.649375 64.549942 
L 617.649375 64.549942 
" clip-path="url(#pcd772fcf48)" style="fill: none; stroke: #b0b0b0; stroke-opacity: 0.2; stroke-width: 0.8; stroke-linecap: square"/>
     </g>
     <g id="line2d_92">
      <g>
       <use xlink:href="#m791adf600b" x="59.649375" y="64.549942" style="stroke: #000000; stroke-width: 0.6"/>
      </g>
     </g>
    </g>
    <g id="ytick_27">
     <g id="line2d_93">
      <path d="M 59.649375 56.308489 
L 617.649375 56.308489 
" clip-path="url(#pcd772fcf48)" style="fill: none; stroke: #b0b0b0; stroke-opacity: 0.2; stroke-width: 0.8; stroke-linecap: square"/>
     </g>
     <g id="line2d_94">
      <g>
       <use xlink:href="#m791adf600b" x="59.649375" y="56.308489" style="stroke: #000000; stroke-width: 0.6"/>
      </g>
     </g>
    </g>
    <g id="ytick_28">
     <g id="line2d_95">
      <path d="M 59.649375 49.039012 
L 617.649375 49.039012 
" clip-path="url(#pcd772fcf48)" style="fill: none; stroke: #b0b0b0; stroke-opacity: 0.2; stroke-width: 0.8; stroke-linecap: square"/>
     </g>
     <g id="line2d_96">
      <g>
       <use xlink:href="#m791adf600b" x="59.649375" y="49.039012" style="stroke: #000000; stroke-width: 0.6"/>
      </g>
     </g>
    </g>
    <g id="text_9">
     <!-- Total Ionization Cross Section (m²) -->
     <g transform="translate(17.837813 366.744219) rotate(-90) scale(0.14 -0.14)">
      <defs>
       <path id="DejaVuSans-54" d="M -19 4666 
L 3928 4666 
L 3928 4134 
L 2272 4134 
L 2272 0 
L 1638 0 
L 1638 4134 
L -19 4134 
L -19 4666 
z
" transform="scale(0.015625)"/>
       <path id="DejaVuSans-61" d="M 2194 1759 
Q 1497 1759 1228 1600 
Q 959 1441 959 1056 
Q 959 750 1161 570 
Q 1363 391 1709 391 
Q 2188 391 2477 730 
Q 2766 1069 2766 1631 
L 2766 1759 
L 2194 1759 
z
M 3341 1997 
L 3341 0 
L 2766 0 
L 2766 531 
Q 2569 213 2275 61 
Q 1981 -91 1556 -91 
Q 1019 -91 701 211 
Q 384 513 384 1019 
Q 384 1609 779 1909 
Q 1175 2209 1959 2209 
L 2766 2209 
L 2766 2266 
Q 2766 2663 2505 2880 
Q 2244 3097 1772 3097 
Q 1472 3097 1187 3025 
Q 903 2953 641 2809 
L 641 3341 
Q 956 3463 1253 3523 
Q 1550 3584 1831 3584 
Q 2591 3584 2966 3190 
Q 3341 2797 3341 1997 
z
" transform="scale(0.015625)"/>
       <path id="DejaVuSans-7a" d="M 353 3500 
L 3084 3500 
L 3084 2975 
L 922 459 
L 3084 459 
L 3084 0 
L 275 0 
L 275 525 
L 2438 3041 
L 353 3041 
L 353 3500 
z
" transform="scale(0.015625)"/>
       <path id="DejaVuSans-43" d="M 4122 4306 
L 4122 3641 
Q 3803 3938 3442 4084 
Q 3081 4231 2675 4231 
Q 1875 4231 1450 3742 
Q 1025 3253 1025 2328 
Q 1025 1406 1450 917 
Q 1875 428 2675 428 
Q 3081 428 3442 575 
Q 3803 722 4122 1019 
L 4122 359 
Q 3791 134 3420 21 
Q 3050 -91 2638 -91 
Q 1578 -91 968 557 
Q 359 1206 359 2328 
Q 359 3453 968 4101 
Q 1578 4750 2638 4750 
Q 3056 4750 3426 4639 
Q 3797 4528 4122 4306 
z
" transform="scale(0.015625)"/>
       <path id="DejaVuSans-73" d="M 2834 3397 
L 2834 2853 
Q 2591 2978 2328 3040 
Q 2066 3103 1784 3103 
Q 1356 3103 1142 2972 
Q 928 2841 928 2578 
Q 928 2378 1081 2264 
Q 1234 2150 1697 2047 
L 1894 2003 
Q 2506 1872 2764 1633 
Q 3022 1394 3022 966 
Q 3022 478 2636 193 
Q 2250 -91 1575 -91 
Q 1294 -91 989 -36 
Q 684 19 347 128 
L 347 722 
Q 666 556 975 473 
Q 1284 391 1588 391 
Q 1994 391 2212 530 
Q 2431 669 2431 922 
Q 2431 1156 2273 1281 
Q 2116 1406 1581 1522 
L 1381 1569 
Q 847 1681 609 1914 
Q 372 2147 372 2553 
Q 372 3047 722 3315 
Q 1072 3584 1716 3584 
Q 2034 3584 2315 3537 
Q 2597 3491 2834 3397 
z
" transform="scale(0.015625)"/>
       <path id="DejaVuSans-53" d="M 3425 4513 
L 3425 3897 
Q 3066 4069 2747 4153 
Q 2428 4238 2131 4238 
Q 1616 4238 1336 4038 
Q 1056 3838 1056 3469 
Q 1056 3159 1242 3001 
Q 1428 2844 1947 2747 
L 2328 2669 
Q 3034 2534 3370 2195 
Q 3706 1856 3706 1288 
Q 3706 609 3251 259 
Q 2797 -91 1919 -91 
Q 1588 -91 1214 -16 
Q 841 59 441 206 
L 441 856 
Q 825 641 1194 531 
Q 1563 422 1919 422 
Q 2459 422 2753 634 
Q 3047 847 3047 1241 
Q 3047 1584 2836 1778 
Q 2625 1972 2144 2069 
L 1759 2144 
Q 1053 2284 737 2584 
Q 422 2884 422 3419 
Q 422 4038 858 4394 
Q 1294 4750 2059 4750 
Q 2388 4750 2728 4690 
Q 3069 4631 3425 4513 
z
" transform="scale(0.015625)"/>
       <path id="DejaVuSans-6d" d="M 3328 2828 
Q 3544 3216 3844 3400 
Q 4144 3584 4550 3584 
Q 5097 3584 5394 3201 
Q 5691 2819 5691 2113 
L 5691 0 
L 5113 0 
L 5113 2094 
Q 5113 2597 4934 2840 
Q 4756 3084 4391 3084 
Q 3944 3084 3684 2787 
Q 3425 2491 3425 1978 
L 3425 0 
L 2847 0 
L 2847 2094 
Q 2847 2600 2669 2842 
Q 2491 3084 2119 3084 
Q 1678 3084 1418 2786 
Q 1159 2488 1159 1978 
L 1159 0 
L 581 0 
L 581 3500 
L 1159 3500 
L 1159 2956 
Q 1356 3278 1631 3431 
Q 1906 3584 2284 3584 
Q 2666 3584 2933 3390 
Q 3200 3197 3328 2828 
z
" transform="scale(0.015625)"/>
       <path id="DejaVuSans-b2" d="M 838 2444 
L 2163 2444 
L 2163 2088 
L 294 2088 
L 294 2431 
Q 400 2528 597 2703 
Q 1672 3656 1672 3950 
Q 1672 4156 1509 4282 
Q 1347 4409 1081 4409 
Q 919 4409 728 4354 
Q 538 4300 313 4191 
L 313 4575 
Q 553 4663 761 4706 
Q 969 4750 1147 4750 
Q 1600 4750 1872 4544 
Q 2144 4338 2144 4000 
Q 2144 3566 1109 2678 
Q 934 2528 838 2444 
z
" transform="scale(0.015625)"/>
      </defs>
      <use xlink:href="#DejaVuSans-54"/>
      <use xlink:href="#DejaVuSans-6f" transform="translate(44.083984 0)"/>
      <use xlink:href="#DejaVuSans-74" transform="translate(105.265625 0)"/>
      <use xlink:href="#DejaVuSans-61" transform="translate(144.474609 0)"/>
      <use xlink:href="#DejaVuSans-6c" transform="translate(205.753906 0)"/>
      <use xlink:href="#DejaVuSans-20" transform="translate(233.537109 0)"/>
      <use xlink:href="#DejaVuSans-49" transform="translate(265.324219 0)"/>
      <use xlink:href="#DejaVuSans-6f" transform="translate(294.816406 0)"/>
      <use xlink:href="#DejaVuSans-6e" transform="translate(355.998047 0)"/>
      <use xlink:href="#DejaVuSans-69" transform="translate(419.376953 0)"/>
      <use xlink:href="#DejaVuSans-7a" transform="translate(447.160156 0)"/>
      <use xlink:href="#DejaVuSans-61" transform="translate(499.650391 0)"/>
      <use xlink:href="#DejaVuSans-74" transform="translate(560.929688 0)"/>
      <use xlink:href="#DejaVuSans-69" transform="translate(600.138672 0)"/>
      <use xlink:href="#DejaVuSans-6f" transform="translate(627.921875 0)"/>
      <use xlink:href="#DejaVuSans-6e" transform="translate(689.103516 0)"/>
      <use xlink:href="#DejaVuSans-20" transform="translate(752.482422 0)"/>
      <use xlink:href="#DejaVuSans-43" transform="translate(784.269531 0)"/>
      <use xlink:href="#DejaVuSans-72" transform="translate(854.09375 0)"/>
      <use xlink:href="#DejaVuSans-6f" transform="translate(892.957031 0)"/>
      <use xlink:href="#DejaVuSans-73" transform="translate(954.138672 0)"/>
      <use xlink:href="#DejaVuSans-73" transform="translate(1006.238281 0)"/>
      <use xlink:href="#DejaVuSans-20" transform="translate(1058.337891 0)"/>
      <use xlink:href="#DejaVuSans-53" transform="translate(1090.125 0)"/>
      <use xlink:href="#DejaVuSans-65" transform="translate(1153.601562 0)"/>
      <use xlink:href="#DejaVuSans-63" transform="translate(1215.125 0)"/>
      <use xlink:href="#DejaVuSans-74" transform="translate(1270.105469 0)"/>
      <use xlink:href="#DejaVuSans-69" transform="translate(1309.314453 0)"/>
      <use xlink:href="#DejaVuSans-6f" transform="translate(1337.097656 0)"/>
      <use xlink:href="#DejaVuSans-6e" transform="translate(1398.279297 0)"/>
      <use xlink:href="#DejaVuSans-20" transform="translate(1461.658203 0)"/>
      <use xlink:href="#DejaVuSans-28" transform="translate(1493.445312 0)"/>
      <use xlink:href="#DejaVuSans-6d" transform="translate(1532.458984 0)"/>
      <use xlink:href="#DejaVuSans-b2" transform="translate(1629.871094 0)"/>
      <use xlink:href="#DejaVuSans-29" transform="translate(1669.958984 0)"/>
     </g>
    </g>
   </g>
   <g id="line2d_97">
    <path d="M 52.252538 377.307374 
L 54.726895 304.193519 
L 57.201252 270.398021 
L 59.675609 247.907995 
L 62.149965 230.938748 
L 64.624322 217.276015 
L 67.098679 205.830629 
L 69.573036 195.983913 
L 72.047393 187.349492 
L 74.52175 179.669185 
L 76.996107 172.761492 
L 79.470464 166.49367 
L 81.944821 160.765509 
L 84.419178 155.499372 
L 86.893535 150.633794 
L 89.367892 146.11922 
L 91.842249 141.915062 
L 94.316606 137.987631 
L 96.790963 134.308629 
L 99.26532 130.85404 
L 101.739677 127.603294 
L 106.688391 121.644604 
L 111.637105 116.315956 
L 116.585818 111.527047 
L 121.534532 107.206458 
L 126.483246 103.296705 
L 131.43196 99.750831 
L 136.380674 96.529992 
L 146.278102 90.663382 
L 151.226816 88.000417 
L 156.17553 85.562655 
L 161.124244 83.334888 
L 166.072958 81.303391 
L 171.021671 79.455772 
L 175.970385 77.780839 
L 180.919099 76.268468 
L 188.34217 74.284893 
L 195.765241 72.619179 
L 203.188312 71.247465 
L 210.611383 70.148904 
L 218.034454 69.30518 
L 225.457524 68.700093 
L 232.880595 68.319219 
L 240.303666 68.14963 
L 247.726737 68.179652 
L 260.098522 68.51399 
L 269.99595 69.058856 
L 279.893377 69.872754 
L 289.790805 70.942513 
L 299.688233 72.254798 
L 309.585661 73.796399 
L 319.483089 75.55441 
L 329.380516 77.516358 
L 339.277944 79.670276 
L 351.649729 82.579407 
L 364.021514 85.72855 
L 376.393299 89.111061 
L 388.765083 92.700244 
L 401.136868 96.489366 
L 415.98301 101.28221 
L 430.829152 106.323243 
L 445.675293 111.592841 
L 460.521435 117.073062 
L 477.841934 123.7111 
L 495.162432 130.590017 
L 512.482931 137.688494 
L 532.277787 146.045075 
L 544.649571 151.388904 
L 544.649571 151.388904 
" clip-path="url(#pcd772fcf48)" style="fill: none; stroke: #0000ff; stroke-width: 2; stroke-linecap: square"/>
   </g>
   <g id="line2d_98">
    <defs>
     <path id="m5ba2348021" d="M 0 4 
C 1.060812 4 2.078319 3.578535 2.828427 2.828427 
C 3.578535 2.078319 4 1.060812 4 0 
C 4 -1.060812 3.578535 -2.078319 2.828427 -2.828427 
C 2.078319 -3.578535 1.060812 -4 0 -4 
C -1.060812 -4 -2.078319 -3.578535 -2.828427 -2.828427 
C -3.578535 -2.078319 -4 -1.060812 -4 0 
C -4 1.060812 -3.578535 2.078319 -2.828427 2.828427 
C -2.078319 3.578535 -1.060812 4 0 4 
z
" style="stroke: #ff0000"/>
    </defs>
    <g clip-path="url(#pcd772fcf48)">
     <use xlink:href="#m5ba2348021" x="102.351523" y="198.422241" style="fill: #ff0000; stroke: #ff0000"/>
     <use xlink:href="#m5ba2348021" x="132.649179" y="141.869493" style="fill: #ff0000; stroke: #ff0000"/>
     <use xlink:href="#m5ba2348021" x="156.149866" y="112.861237" style="fill: #ff0000; stroke: #ff0000"/>
     <use xlink:href="#m5ba2348021" x="175.351326" y="96.0777" style="fill: #ff0000; stroke: #ff0000"/>
     <use xlink:href="#m5ba2348021" x="191.585929" y="85.316746" style="fill: #ff0000; stroke: #ff0000"/>
     <use xlink:href="#m5ba2348021" x="205.648982" y="79.434276" style="fill: #ff0000; stroke: #ff0000"/>
     <use xlink:href="#m5ba2348021" x="229.14967" y="72.040239" style="fill: #ff0000; stroke: #ff0000"/>
     <use xlink:href="#m5ba2348021" x="248.35113" y="69.123828" style="fill: #ff0000; stroke: #ff0000"/>
     <use xlink:href="#m5ba2348021" x="264.585733" y="68.181532" style="fill: #ff0000; stroke: #ff0000"/>
     <use xlink:href="#m5ba2348021" x="278.648786" y="68.650882" style="fill: #ff0000; stroke: #ff0000"/>
     <use xlink:href="#m5ba2348021" x="291.053277" y="69.600427" style="fill: #ff0000; stroke: #ff0000"/>
     <use xlink:href="#m5ba2348021" x="302.149473" y="71.052711" style="fill: #ff0000; stroke: #ff0000"/>
     <use xlink:href="#m5ba2348021" x="321.350933" y="75.101324" style="fill: #ff0000; stroke: #ff0000"/>
     <use xlink:href="#m5ba2348021" x="344.851621" y="81.720434" style="fill: #ff0000; stroke: #ff0000"/>
     <use xlink:href="#m5ba2348021" x="375.149277" y="93.206521" style="fill: #ff0000; stroke: #ff0000"/>
     <use xlink:href="#m5ba2348021" x="398.649964" y="103.900717" style="fill: #ff0000; stroke: #ff0000"/>
     <use xlink:href="#m5ba2348021" x="417.851424" y="112.861237" style="fill: #ff0000; stroke: #ff0000"/>
     <use xlink:href="#m5ba2348021" x="448.14908" y="126.875045" style="fill: #ff0000; stroke: #ff0000"/>
     <use xlink:href="#m5ba2348021" x="471.649768" y="138.858203" style="fill: #ff0000; stroke: #ff0000"/>
     <use xlink:href="#m5ba2348021" x="490.851228" y="148.372262" style="fill: #ff0000; stroke: #ff0000"/>
     <use xlink:href="#m5ba2348021" x="521.148884" y="163.883192" style="fill: #ff0000; stroke: #ff0000"/>
     <use xlink:href="#m5ba2348021" x="544.649571" y="176.023998" style="fill: #ff0000; stroke: #ff0000"/>
    </g>
   </g>
   <g id="line2d_99">
    <path d="M 79.985627 468.8775 
L 79.985627 25.3575 
" clip-path="url(#pcd772fcf48)" style="fill: none; stroke-dasharray: 5.55,2.4; stroke-dashoffset: 0; stroke: #808080; stroke-opacity: 0.5; stroke-width: 1.5"/>
   </g>
   <g id="line2d_100">
    <path d="M 242.778023 468.8775 
L 242.778023 25.3575 
" clip-path="url(#pcd772fcf48)" style="fill: none; stroke-dasharray: 1.5,2.475; stroke-dashoffset: 0; stroke: #008000; stroke-opacity: 0.5; stroke-width: 1.5"/>
   </g>
   <g id="patch_3">
    <path d="M 59.649375 468.8775 
L 59.649375 25.3575 
" style="fill: none; stroke: #000000; stroke-width: 0.8; stroke-linejoin: miter; stroke-linecap: square"/>
   </g>
   <g id="patch_4">
    <path d="M 617.649375 468.8775 
L 617.649375 25.3575 
" style="fill: none; stroke: #000000; stroke-width: 0.8; stroke-linejoin: miter; stroke-linecap: square"/>
   </g>
   <g id="patch_5">
    <path d="M 59.649375 468.8775 
L 617.649375 468.8775 
" style="fill: none; stroke: #000000; stroke-width: 0.8; stroke-linejoin: miter; stroke-linecap: square"/>
   </g>
   <g id="patch_6">
    <path d="M 59.649375 25.3575 
L 617.649375 25.3575 
" style="fill: none; stroke: #000000; stroke-width: 0.8; stroke-linejoin: miter; stroke-linecap: square"/>
   </g>
   <g id="text_10">
    <!-- Max: 6.60e-20 m² at 56.9 eV -->
    <g style="fill: #008000" transform="translate(252.815753 81.910248) scale(0.1 -0.1)">
     <defs>
      <path id="DejaVuSans-4d" d="M 628 4666 
L 1569 4666 
L 2759 1491 
L 3956 4666 
L 4897 4666 
L 4897 0 
L 4281 0 
L 4281 4097 
L 3078 897 
L 2444 897 
L 1241 4097 
L 1241 0 
L 628 0 
L 628 4666 
z
" transform="scale(0.015625)"/>
      <path id="DejaVuSans-78" d="M 3513 3500 
L 2247 1797 
L 3578 0 
L 2900 0 
L 1881 1375 
L 863 0 
L 184 0 
L 1544 1831 
L 300 3500 
L 978 3500 
L 1906 2253 
L 2834 3500 
L 3513 3500 
z
" transform="scale(0.015625)"/>
      <path id="DejaVuSans-3a" d="M 750 794 
L 1409 794 
L 1409 0 
L 750 0 
L 750 794 
z
M 750 3309 
L 1409 3309 
L 1409 2516 
L 750 2516 
L 750 3309 
z
" transform="scale(0.015625)"/>
      <path id="DejaVuSans-36" d="M 2113 2584 
Q 1688 2584 1439 2293 
Q 1191 2003 1191 1497 
Q 1191 994 1439 701 
Q 1688 409 2113 409 
Q 2538 409 2786 701 
Q 3034 994 3034 1497 
Q 3034 2003 2786 2293 
Q 2538 2584 2113 2584 
z
M 3366 4563 
L 3366 3988 
Q 3128 4100 2886 4159 
Q 2644 4219 2406 4219 
Q 1781 4219 1451 3797 
Q 1122 3375 1075 2522 
Q 1259 2794 1537 2939 
Q 1816 3084 2150 3084 
Q 2853 3084 3261 2657 
Q 3669 2231 3669 1497 
Q 3669 778 3244 343 
Q 2819 -91 2113 -91 
Q 1303 -91 875 529 
Q 447 1150 447 2328 
Q 447 3434 972 4092 
Q 1497 4750 2381 4750 
Q 2619 4750 2861 4703 
Q 3103 4656 3366 4563 
z
" transform="scale(0.015625)"/>
      <path id="DejaVuSans-2e" d="M 684 794 
L 1344 794 
L 1344 0 
L 684 0 
L 684 794 
z
" transform="scale(0.015625)"/>
      <path id="DejaVuSans-2d" d="M 313 2009 
L 1997 2009 
L 1997 1497 
L 313 1497 
L 313 2009 
z
" transform="scale(0.015625)"/>
      <path id="DejaVuSans-35" d="M 691 4666 
L 3169 4666 
L 3169 4134 
L 1269 4134 
L 1269 2991 
Q 1406 3038 1543 3061 
Q 1681 3084 1819 3084 
Q 2600 3084 3056 2656 
Q 3513 2228 3513 1497 
Q 3513 744 3044 326 
Q 2575 -91 1722 -91 
Q 1428 -91 1123 -41 
Q 819 9 494 109 
L 494 744 
Q 775 591 1075 516 
Q 1375 441 1709 441 
Q 2250 441 2565 725 
Q 2881 1009 2881 1497 
Q 2881 1984 2565 2268 
Q 2250 2553 1709 2553 
Q 1456 2553 1204 2497 
Q 953 2441 691 2322 
L 691 4666 
z
" transform="scale(0.015625)"/>
     </defs>
     <use xlink:href="#DejaVuSans-4d"/>
     <use xlink:href="#DejaVuSans-61" transform="translate(86.279297 0)"/>
     <use xlink:href="#DejaVuSans-78" transform="translate(147.558594 0)"/>
     <use xlink:href="#DejaVuSans-3a" transform="translate(206.738281 0)"/>
     <use xlink:href="#DejaVuSans-20" transform="translate(240.429688 0)"/>
     <use xlink:href="#DejaVuSans-36" transform="translate(272.216797 0)"/>
     <use xlink:href="#DejaVuSans-2e" transform="translate(335.839844 0)"/>
     <use xlink:href="#DejaVuSans-36" transform="translate(367.626953 0)"/>
     <use xlink:href="#DejaVuSans-30" transform="translate(431.25 0)"/>
     <use xlink:href="#DejaVuSans-65" transform="translate(494.873047 0)"/>
     <use xlink:href="#DejaVuSans-2d" transform="translate(556.396484 0)"/>
     <use xlink:href="#DejaVuSans-32" transform="translate(592.480469 0)"/>
     <use xlink:href="#DejaVuSans-30" transform="translate(656.103516 0)"/>
     <use xlink:href="#DejaVuSans-20" transform="translate(719.726562 0)"/>
     <use xlink:href="#DejaVuSans-6d" transform="translate(751.513672 0)"/>
     <use xlink:href="#DejaVuSans-b2" transform="translate(848.925781 0)"/>
     <use xlink:href="#DejaVuSans-20" transform="translate(889.013672 0)"/>
     <use xlink:href="#DejaVuSans-61" transform="translate(920.800781 0)"/>
     <use xlink:href="#DejaVuSans-74" transform="translate(982.080078 0)"/>
     <use xlink:href="#DejaVuSans-20" transform="translate(1021.289062 0)"/>
     <use xlink:href="#DejaVuSans-35" transform="translate(1053.076172 0)"/>
     <use xlink:href="#DejaVuSans-36" transform="translate(1116.699219 0)"/>
     <use xlink:href="#DejaVuSans-2e" transform="translate(1180.322266 0)"/>
     <use xlink:href="#DejaVuSans-39" transform="translate(1212.109375 0)"/>
     <use xlink:href="#DejaVuSans-20" transform="translate(1275.732422 0)"/>
     <use xlink:href="#DejaVuSans-65" transform="translate(1307.519531 0)"/>
     <use xlink:href="#DejaVuSans-56" transform="translate(1369.042969 0)"/>
    </g>
   </g>
   <g id="text_11">
    <g id="patch_7">
     <path d="M 87.549375 437.42325 
L 183.699375 437.42325 
Q 186.699375 437.42325 186.699375 434.42325 
L 186.699375 402.3495 
Q 186.699375 399.3495 183.699375 399.3495 
L 87.549375 399.3495 
Q 84.549375 399.3495 84.549375 402.3495 
L 84.549375 434.42325 
Q 84.549375 437.42325 87.549375 437.42325 
z
" style="fill: #f5deb3; opacity: 0.5; stroke: #000000; stroke-linejoin: miter"/>
    </g>
    <!-- BEB Model -->
    <g transform="translate(87.549375 409.947937) scale(0.1 -0.1)">
     <defs>
      <path id="DejaVuSans-42" d="M 1259 2228 
L 1259 519 
L 2272 519 
Q 2781 519 3026 730 
Q 3272 941 3272 1375 
Q 3272 1813 3026 2020 
Q 2781 2228 2272 2228 
L 1259 2228 
z
M 1259 4147 
L 1259 2741 
L 2194 2741 
Q 2656 2741 2882 2914 
Q 3109 3088 3109 3444 
Q 3109 3797 2882 3972 
Q 2656 4147 2194 4147 
L 1259 4147 
z
M 628 4666 
L 2241 4666 
Q 2963 4666 3353 4366 
Q 3744 4066 3744 3513 
Q 3744 3084 3544 2831 
Q 3344 2578 2956 2516 
Q 3422 2416 3680 2098 
Q 3938 1781 3938 1306 
Q 3938 681 3513 340 
Q 3088 0 2303 0 
L 628 0 
L 628 4666 
z
" transform="scale(0.015625)"/>
     </defs>
     <use xlink:href="#DejaVuSans-42"/>
     <use xlink:href="#DejaVuSans-45" transform="translate(68.603516 0)"/>
     <use xlink:href="#DejaVuSans-42" transform="translate(131.787109 0)"/>
     <use xlink:href="#DejaVuSans-20" transform="translate(200.390625 0)"/>
     <use xlink:href="#DejaVuSans-4d" transform="translate(232.177734 0)"/>
     <use xlink:href="#DejaVuSans-6f" transform="translate(318.457031 0)"/>
     <use xlink:href="#DejaVuSans-64" transform="translate(379.638672 0)"/>
     <use xlink:href="#DejaVuSans-65" transform="translate(443.115234 0)"/>
     <use xlink:href="#DejaVuSans-6c" transform="translate(504.638672 0)"/>
    </g>
    <!-- Xe atom -->
    <g transform="translate(87.549375 421.14575) scale(0.1 -0.1)">
     <defs>
      <path id="DejaVuSans-58" d="M 403 4666 
L 1081 4666 
L 2241 2931 
L 3406 4666 
L 4084 4666 
L 2584 2425 
L 4184 0 
L 3506 0 
L 2194 1984 
L 872 0 
L 191 0 
L 1856 2491 
L 403 4666 
z
" transform="scale(0.015625)"/>
     </defs>
     <use xlink:href="#DejaVuSans-58"/>
     <use xlink:href="#DejaVuSans-65" transform="translate(64.005859 0)"/>
     <use xlink:href="#DejaVuSans-20" transform="translate(125.529297 0)"/>
     <use xlink:href="#DejaVuSans-61" transform="translate(157.316406 0)"/>
     <use xlink:href="#DejaVuSans-74" transform="translate(218.595703 0)"/>
     <use xlink:href="#DejaVuSans-6f" transform="translate(257.804688 0)"/>
     <use xlink:href="#DejaVuSans-6d" transform="translate(318.986328 0)"/>
    </g>
    <!-- B3LYP/aug-cc-pVTZ -->
    <g transform="translate(87.549375 432.343562) scale(0.1 -0.1)">
     <defs>
      <path id="DejaVuSans-4c" d="M 628 4666 
L 1259 4666 
L 1259 531 
L 3531 531 
L 3531 0 
L 628 0 
L 628 4666 
z
" transform="scale(0.015625)"/>
      <path id="DejaVuSans-59" d="M -13 4666 
L 666 4666 
L 1959 2747 
L 3244 4666 
L 3922 4666 
L 2272 2222 
L 2272 0 
L 1638 0 
L 1638 2222 
L -13 4666 
z
" transform="scale(0.015625)"/>
      <path id="DejaVuSans-50" d="M 1259 4147 
L 1259 2394 
L 2053 2394 
Q 2494 2394 2734 2622 
Q 2975 2850 2975 3272 
Q 2975 3691 2734 3919 
Q 2494 4147 2053 4147 
L 1259 4147 
z
M 628 4666 
L 2053 4666 
Q 2838 4666 3239 4311 
Q 3641 3956 3641 3272 
Q 3641 2581 3239 2228 
Q 2838 1875 2053 1875 
L 1259 1875 
L 1259 0 
L 628 0 
L 628 4666 
z
" transform="scale(0.015625)"/>
      <path id="DejaVuSans-2f" d="M 1625 4666 
L 2156 4666 
L 531 -594 
L 0 -594 
L 1625 4666 
z
" transform="scale(0.015625)"/>
      <path id="DejaVuSans-75" d="M 544 1381 
L 544 3500 
L 1119 3500 
L 1119 1403 
Q 1119 906 1312 657 
Q 1506 409 1894 409 
Q 2359 409 2629 706 
Q 2900 1003 2900 1516 
L 2900 3500 
L 3475 3500 
L 3475 0 
L 2900 0 
L 2900 538 
Q 2691 219 2414 64 
Q 2138 -91 1772 -91 
Q 1169 -91 856 284 
Q 544 659 544 1381 
z
M 1991 3584 
L 1991 3584 
z
" transform="scale(0.015625)"/>
      <path id="DejaVuSans-70" d="M 1159 525 
L 1159 -1331 
L 581 -1331 
L 581 3500 
L 1159 3500 
L 1159 2969 
Q 1341 3281 1617 3432 
Q 1894 3584 2278 3584 
Q 2916 3584 3314 3078 
Q 3713 2572 3713 1747 
Q 3713 922 3314 415 
Q 2916 -91 2278 -91 
Q 1894 -91 1617 61 
Q 1341 213 1159 525 
z
M 3116 1747 
Q 3116 2381 2855 2742 
Q 2594 3103 2138 3103 
Q 1681 3103 1420 2742 
Q 1159 2381 1159 1747 
Q 1159 1113 1420 752 
Q 1681 391 2138 391 
Q 2594 391 2855 752 
Q 3116 1113 3116 1747 
z
" transform="scale(0.015625)"/>
      <path id="DejaVuSans-5a" d="M 359 4666 
L 4025 4666 
L 4025 4184 
L 1075 531 
L 4097 531 
L 4097 0 
L 288 0 
L 288 481 
L 3238 4134 
L 359 4134 
L 359 4666 
z
" transform="scale(0.015625)"/>
     </defs>
     <use xlink:href="#DejaVuSans-42"/>
     <use xlink:href="#DejaVuSans-33" transform="translate(68.603516 0)"/>
     <use xlink:href="#DejaVuSans-4c" transform="translate(132.226562 0)"/>
     <use xlink:href="#DejaVuSans-59" transform="translate(174.689453 0)"/>
     <use xlink:href="#DejaVuSans-50" transform="translate(235.773438 0)"/>
     <use xlink:href="#DejaVuSans-2f" transform="translate(296.076172 0)"/>
     <use xlink:href="#DejaVuSans-61" transform="translate(329.767578 0)"/>
     <use xlink:href="#DejaVuSans-75" transform="translate(391.046875 0)"/>
     <use xlink:href="#DejaVuSans-67" transform="translate(454.425781 0)"/>
     <use xlink:href="#DejaVuSans-2d" transform="translate(517.902344 0)"/>
     <use xlink:href="#DejaVuSans-63" transform="translate(553.986328 0)"/>
     <use xlink:href="#DejaVuSans-63" transform="translate(608.966797 0)"/>
     <use xlink:href="#DejaVuSans-2d" transform="translate(663.947266 0)"/>
     <use xlink:href="#DejaVuSans-70" transform="translate(700.03125 0)"/>
     <use xlink:href="#DejaVuSans-56" transform="translate(763.507812 0)"/>
     <use xlink:href="#DejaVuSans-54" transform="translate(831.916016 0)"/>
     <use xlink:href="#DejaVuSans-5a" transform="translate(893 0)"/>
    </g>
   </g>
   <g id="text_12">
    <!-- Electron Impact Ionization Cross Section of Xe -->
    <g transform="translate(154.541875 19.3575) scale(0.16 -0.16)">
     <defs>
      <path id="DejaVuSans-66" d="M 2375 4863 
L 2375 4384 
L 1825 4384 
Q 1516 4384 1395 4259 
Q 1275 4134 1275 3809 
L 1275 3500 
L 2222 3500 
L 2222 3053 
L 1275 3053 
L 1275 0 
L 697 0 
L 697 3053 
L 147 3053 
L 147 3500 
L 697 3500 
L 697 3744 
Q 697 4328 969 4595 
Q 1241 4863 1831 4863 
L 2375 4863 
z
" transform="scale(0.015625)"/>
     </defs>
     <use xlink:href="#DejaVuSans-45"/>
     <use xlink:href="#DejaVuSans-6c" transform="translate(63.183594 0)"/>
     <use xlink:href="#DejaVuSans-65" transform="translate(90.966797 0)"/>
     <use xlink:href="#DejaVuSans-63" transform="translate(152.490234 0)"/>
     <use xlink:href="#DejaVuSans-74" transform="translate(207.470703 0)"/>
     <use xlink:href="#DejaVuSans-72" transform="translate(246.679688 0)"/>
     <use xlink:href="#DejaVuSans-6f" transform="translate(285.542969 0)"/>
     <use xlink:href="#DejaVuSans-6e" transform="translate(346.724609 0)"/>
     <use xlink:href="#DejaVuSans-20" transform="translate(410.103516 0)"/>
     <use xlink:href="#DejaVuSans-49" transform="translate(441.890625 0)"/>
     <use xlink:href="#DejaVuSans-6d" transform="translate(471.382812 0)"/>
     <use xlink:href="#DejaVuSans-70" transform="translate(568.794922 0)"/>
     <use xlink:href="#DejaVuSans-61" transform="translate(632.271484 0)"/>
     <use xlink:href="#DejaVuSans-63" transform="translate(693.550781 0)"/>
     <use xlink:href="#DejaVuSans-74" transform="translate(748.53125 0)"/>
     <use xlink:href="#DejaVuSans-20" transform="translate(787.740234 0)"/>
     <use xlink:href="#DejaVuSans-49" transform="translate(819.527344 0)"/>
     <use xlink:href="#DejaVuSans-6f" transform="translate(849.019531 0)"/>
     <use xlink:href="#DejaVuSans-6e" transform="translate(910.201172 0)"/>
     <use xlink:href="#DejaVuSans-69" transform="translate(973.580078 0)"/>
     <use xlink:href="#DejaVuSans-7a" transform="translate(1001.363281 0)"/>
     <use xlink:href="#DejaVuSans-61" transform="translate(1053.853516 0)"/>
     <use xlink:href="#DejaVuSans-74" transform="translate(1115.132812 0)"/>
     <use xlink:href="#DejaVuSans-69" transform="translate(1154.341797 0)"/>
     <use xlink:href="#DejaVuSans-6f" transform="translate(1182.125 0)"/>
     <use xlink:href="#DejaVuSans-6e" transform="translate(1243.306641 0)"/>
     <use xlink:href="#DejaVuSans-20" transform="translate(1306.685547 0)"/>
     <use xlink:href="#DejaVuSans-43" transform="translate(1338.472656 0)"/>
     <use xlink:href="#DejaVuSans-72" transform="translate(1408.296875 0)"/>
     <use xlink:href="#DejaVuSans-6f" transform="translate(1447.160156 0)"/>
     <use xlink:href="#DejaVuSans-73" transform="translate(1508.341797 0)"/>
     <use xlink:href="#DejaVuSans-73" transform="translate(1560.441406 0)"/>
     <use xlink:href="#DejaVuSans-20" transform="translate(1612.541016 0)"/>
     <use xlink:href="#DejaVuSans-53" transform="translate(1644.328125 0)"/>
     <use xlink:href="#DejaVuSans-65" transform="translate(1707.804688 0)"/>
     <use xlink:href="#DejaVuSans-63" transform="translate(1769.328125 0)"/>
     <use xlink:href="#DejaVuSans-74" transform="translate(1824.308594 0)"/>
     <use xlink:href="#DejaVuSans-69" transform="translate(1863.517578 0)"/>
     <use xlink:href="#DejaVuSans-6f" transform="translate(1891.300781 0)"/>
     <use xlink:href="#DejaVuSans-6e" transform="translate(1952.482422 0)"/>
     <use xlink:href="#DejaVuSans-20" transform="translate(2015.861328 0)"/>
     <use xlink:href="#DejaVuSans-6f" transform="translate(2047.648438 0)"/>
     <use xlink:href="#DejaVuSans-66" transform="translate(2108.830078 0)"/>
     <use xlink:href="#DejaVuSans-20" transform="translate(2144.035156 0)"/>
     <use xlink:href="#DejaVuSans-58" transform="translate(2175.822266 0)"/>
     <use xlink:href="#DejaVuSans-65" transform="translate(2239.828125 0)"/>
    </g>
   </g>
   <g id="legend_1">
    <g id="patch_8">
     <path d="M 385.1325 87.79875 
L 609.249375 87.79875 
Q 611.649375 87.79875 611.649375 85.39875 
L 611.649375 33.7575 
Q 611.649375 31.3575 609.249375 31.3575 
L 385.1325 31.3575 
Q 382.7325 31.3575 382.7325 33.7575 
L 382.7325 85.39875 
Q 382.7325 87.79875 385.1325 87.79875 
z
" style="fill: #ffffff; opacity: 0.8; stroke: #cccccc; stroke-linejoin: miter"/>
    </g>
    <g id="line2d_101">
     <path d="M 387.5325 41.075625 
L 399.5325 41.075625 
L 411.5325 41.075625 
" style="fill: none; stroke: #0000ff; stroke-width: 2; stroke-linecap: square"/>
    </g>
    <g id="text_13">
     <!-- Xe BEB calculation -->
     <g transform="translate(421.1325 45.275625) scale(0.12 -0.12)">
      <use xlink:href="#DejaVuSans-58"/>
      <use xlink:href="#DejaVuSans-65" transform="translate(64.005859 0)"/>
      <use xlink:href="#DejaVuSans-20" transform="translate(125.529297 0)"/>
      <use xlink:href="#DejaVuSans-42" transform="translate(157.316406 0)"/>
      <use xlink:href="#DejaVuSans-45" transform="translate(225.919922 0)"/>
      <use xlink:href="#DejaVuSans-42" transform="translate(289.103516 0)"/>
      <use xlink:href="#DejaVuSans-20" transform="translate(357.707031 0)"/>
      <use xlink:href="#DejaVuSans-63" transform="translate(389.494141 0)"/>
      <use xlink:href="#DejaVuSans-61" transform="translate(444.474609 0)"/>
      <use xlink:href="#DejaVuSans-6c" transform="translate(505.753906 0)"/>
      <use xlink:href="#DejaVuSans-63" transform="translate(533.537109 0)"/>
      <use xlink:href="#DejaVuSans-75" transform="translate(588.517578 0)"/>
      <use xlink:href="#DejaVuSans-6c" transform="translate(651.896484 0)"/>
      <use xlink:href="#DejaVuSans-61" transform="translate(679.679688 0)"/>
      <use xlink:href="#DejaVuSans-74" transform="translate(740.958984 0)"/>
      <use xlink:href="#DejaVuSans-69" transform="translate(780.167969 0)"/>
      <use xlink:href="#DejaVuSans-6f" transform="translate(807.951172 0)"/>
      <use xlink:href="#DejaVuSans-6e" transform="translate(869.132812 0)"/>
     </g>
    </g>
    <g id="line2d_102">
     <g>
      <use xlink:href="#m5ba2348021" x="399.5325" y="58.689375" style="fill: #ff0000; stroke: #ff0000"/>
     </g>
    </g>
    <g id="text_14">
     <!-- Experiment (Rejoub et al.) -->
     <g transform="translate(421.1325 62.889375) scale(0.12 -0.12)">
      <defs>
       <path id="DejaVuSans-52" d="M 2841 2188 
Q 3044 2119 3236 1894 
Q 3428 1669 3622 1275 
L 4263 0 
L 3584 0 
L 2988 1197 
Q 2756 1666 2539 1819 
Q 2322 1972 1947 1972 
L 1259 1972 
L 1259 0 
L 628 0 
L 628 4666 
L 2053 4666 
Q 2853 4666 3247 4331 
Q 3641 3997 3641 3322 
Q 3641 2881 3436 2590 
Q 3231 2300 2841 2188 
z
M 1259 4147 
L 1259 2491 
L 2053 2491 
Q 2509 2491 2742 2702 
Q 2975 2913 2975 3322 
Q 2975 3731 2742 3939 
Q 2509 4147 2053 4147 
L 1259 4147 
z
" transform="scale(0.015625)"/>
       <path id="DejaVuSans-6a" d="M 603 3500 
L 1178 3500 
L 1178 -63 
Q 1178 -731 923 -1031 
Q 669 -1331 103 -1331 
L -116 -1331 
L -116 -844 
L 38 -844 
Q 366 -844 484 -692 
Q 603 -541 603 -63 
L 603 3500 
z
M 603 4863 
L 1178 4863 
L 1178 4134 
L 603 4134 
L 603 4863 
z
" transform="scale(0.015625)"/>
       <path id="DejaVuSans-62" d="M 3116 1747 
Q 3116 2381 2855 2742 
Q 2594 3103 2138 3103 
Q 1681 3103 1420 2742 
Q 1159 2381 1159 1747 
Q 1159 1113 1420 752 
Q 1681 391 2138 391 
Q 2594 391 2855 752 
Q 3116 1113 3116 1747 
z
M 1159 2969 
Q 1341 3281 1617 3432 
Q 1894 3584 2278 3584 
Q 2916 3584 3314 3078 
Q 3713 2572 3713 1747 
Q 3713 922 3314 415 
Q 2916 -91 2278 -91 
Q 1894 -91 1617 61 
Q 1341 213 1159 525 
L 1159 0 
L 581 0 
L 581 4863 
L 1159 4863 
L 1159 2969 
z
" transform="scale(0.015625)"/>
      </defs>
      <use xlink:href="#DejaVuSans-45"/>
      <use xlink:href="#DejaVuSans-78" transform="translate(63.183594 0)"/>
      <use xlink:href="#DejaVuSans-70" transform="translate(122.363281 0)"/>
      <use xlink:href="#DejaVuSans-65" transform="translate(185.839844 0)"/>
      <use xlink:href="#DejaVuSans-72" transform="translate(247.363281 0)"/>
      <use xlink:href="#DejaVuSans-69" transform="translate(288.476562 0)"/>
      <use xlink:href="#DejaVuSans-6d" transform="translate(316.259766 0)"/>
      <use xlink:href="#DejaVuSans-65" transform="translate(413.671875 0)"/>
      <use xlink:href="#DejaVuSans-6e" transform="translate(475.195312 0)"/>
      <use xlink:href="#DejaVuSans-74" transform="translate(538.574219 0)"/>
      <use xlink:href="#DejaVuSans-20" transform="translate(577.783203 0)"/>
      <use xlink:href="#DejaVuSans-28" transform="translate(609.570312 0)"/>
      <use xlink:href="#DejaVuSans-52" transform="translate(648.583984 0)"/>
      <use xlink:href="#DejaVuSans-65" transform="translate(713.566406 0)"/>
      <use xlink:href="#DejaVuSans-6a" transform="translate(775.089844 0)"/>
      <use xlink:href="#DejaVuSans-6f" transform="translate(802.873047 0)"/>
      <use xlink:href="#DejaVuSans-75" transform="translate(864.054688 0)"/>
      <use xlink:href="#DejaVuSans-62" transform="translate(927.433594 0)"/>
      <use xlink:href="#DejaVuSans-20" transform="translate(990.910156 0)"/>
      <use xlink:href="#DejaVuSans-65" transform="translate(1022.697266 0)"/>
      <use xlink:href="#DejaVuSans-74" transform="translate(1084.220703 0)"/>
      <use xlink:href="#DejaVuSans-20" transform="translate(1123.429688 0)"/>
      <use xlink:href="#DejaVuSans-61" transform="translate(1155.216797 0)"/>
      <use xlink:href="#DejaVuSans-6c" transform="translate(1216.496094 0)"/>
      <use xlink:href="#DejaVuSans-2e" transform="translate(1244.279297 0)"/>
      <use xlink:href="#DejaVuSans-29" transform="translate(1276.066406 0)"/>
     </g>
    </g>
    <g id="line2d_103">
     <path d="M 387.5325 76.303125 
L 399.5325 76.303125 
L 411.5325 76.303125 
" style="fill: none; stroke-dasharray: 5.55,2.4; stroke-dashoffset: 0; stroke: #808080; stroke-opacity: 0.5; stroke-width: 1.5"/>
    </g>
    <g id="text_15">
     <!-- Ionization threshold (12.13 eV) -->
     <g transform="translate(421.1325 80.503125) scale(0.12 -0.12)">
      <defs>
       <path id="DejaVuSans-68" d="M 3513 2113 
L 3513 0 
L 2938 0 
L 2938 2094 
Q 2938 2591 2744 2837 
Q 2550 3084 2163 3084 
Q 1697 3084 1428 2787 
Q 1159 2491 1159 1978 
L 1159 0 
L 581 0 
L 581 4863 
L 1159 4863 
L 1159 2956 
Q 1366 3272 1645 3428 
Q 1925 3584 2291 3584 
Q 2894 3584 3203 3211 
Q 3513 2838 3513 2113 
z
" transform="scale(0.015625)"/>
      </defs>
      <use xlink:href="#DejaVuSans-49"/>
      <use xlink:href="#DejaVuSans-6f" transform="translate(29.492188 0)"/>
      <use xlink:href="#DejaVuSans-6e" transform="translate(90.673828 0)"/>
      <use xlink:href="#DejaVuSans-69" transform="translate(154.052734 0)"/>
      <use xlink:href="#DejaVuSans-7a" transform="translate(181.835938 0)"/>
      <use xlink:href="#DejaVuSans-61" transform="translate(234.326172 0)"/>
      <use xlink:href="#DejaVuSans-74" transform="translate(295.605469 0)"/>
      <use xlink:href="#DejaVuSans-69" transform="translate(334.814453 0)"/>
      <use xlink:href="#DejaVuSans-6f" transform="translate(362.597656 0)"/>
      <use xlink:href="#DejaVuSans-6e" transform="translate(423.779297 0)"/>
      <use xlink:href="#DejaVuSans-20" transform="translate(487.158203 0)"/>
      <use xlink:href="#DejaVuSans-74" transform="translate(518.945312 0)"/>
      <use xlink:href="#DejaVuSans-68" transform="translate(558.154297 0)"/>
      <use xlink:href="#DejaVuSans-72" transform="translate(621.533203 0)"/>
      <use xlink:href="#DejaVuSans-65" transform="translate(660.396484 0)"/>
      <use xlink:href="#DejaVuSans-73" transform="translate(721.919922 0)"/>
      <use xlink:href="#DejaVuSans-68" transform="translate(774.019531 0)"/>
      <use xlink:href="#DejaVuSans-6f" transform="translate(837.398438 0)"/>
      <use xlink:href="#DejaVuSans-6c" transform="translate(898.580078 0)"/>
      <use xlink:href="#DejaVuSans-64" transform="translate(926.363281 0)"/>
      <use xlink:href="#DejaVuSans-20" transform="translate(989.839844 0)"/>
      <use xlink:href="#DejaVuSans-28" transform="translate(1021.626953 0)"/>
      <use xlink:href="#DejaVuSans-31" transform="translate(1060.640625 0)"/>
      <use xlink:href="#DejaVuSans-32" transform="translate(1124.263672 0)"/>
      <use xlink:href="#DejaVuSans-2e" transform="translate(1187.886719 0)"/>
      <use xlink:href="#DejaVuSans-31" transform="translate(1219.673828 0)"/>
      <use xlink:href="#DejaVuSans-33" transform="translate(1283.296875 0)"/>
      <use xlink:href="#DejaVuSans-20" transform="translate(1346.919922 0)"/>
      <use xlink:href="#DejaVuSans-65" transform="translate(1378.707031 0)"/>
      <use xlink:href="#DejaVuSans-56" transform="translate(1440.230469 0)"/>
      <use xlink:href="#DejaVuSans-29" transform="translate(1508.638672 0)"/>
     </g>
    </g>
   </g>
  </g>
 </g>
 <defs>
  <clipPath id="pcd772fcf48">
   <rect x="59.649375" y="25.3575" width="558" height="443.52"/>
  </clipPath>
 </defs>
</svg>
